<svg id="Layer_1" data-name="Layer 1" xmlns="http://www.w3.org/2000/svg" viewBox="0 0 400 250"><title>P2PU Avatars</title><polygon points="294.59 35.58 282.77 12.72 270.12 28.88 244.97 10.81 233.63 30.72 210.24 15.46 202.27 34.33 165.23 9.97 145 31.2 129.19 11.62 111.5 34.93 92.44 11.57 78.22 30.18 55.16 9.29 35.11 34.6 13.49 10.48 -5.34 26.62 -11.85 19.03 14.41 -3.48 34.64 19.09 53.96 -5.29 76.87 15.47 92.18 -4.56 111.21 18.76 128.94 -4.61 145.62 16.05 163.75 -2.97 197.73 19.37 205.68 0.54 230.2 16.54 241.78 -3.8 268.16 15.16 284.49 -5.71 296.82 18.12 316.38 -3.7 340.12 19.25 356.91 -3.95 383.02 19.71 404.63 -5.27 412.19 1.27 383.89 33.99 358.47 10.96 341.45 34.45 316.89 10.71 294.59 35.58"/><polygon points="-7.81 68.62 -15.38 62.08 12.93 29.36 38.34 52.39 55.36 28.9 78.83 51.59 91.21 27.77 113.18 52.34 129.06 34.51 152.24 52.58 169.55 26.34 190 49.13 219.06 34.13 232.76 52.15 251.81 32.15 267.63 51.73 279.33 36.31 303.43 53.02 318.59 33.18 340.81 53.22 361.88 28.94 383.33 52.87 402.15 36.73 408.66 44.32 382.41 66.83 362 44.06 341.69 67.47 319.95 47.87 305.58 66.67 281.5 49.99 267.87 67.96 251.19 47.3 231.9 67.54 216.18 46.87 187.72 61.56 170.76 42.66 154.63 67.12 130.29 48.15 113.19 67.36 93.41 45.23 81.53 68.1 56.7 44.1 39.9 67.3 13.79 43.64 -7.81 68.62"/><polygon points="294.59 108.58 282.77 85.72 270.12 101.88 244.97 83.81 233.63 103.72 210.24 88.46 202.27 107.33 165.23 82.97 145 104.2 129.19 84.61 111.5 107.93 92.44 84.57 78.22 103.18 55.16 82.29 35.11 107.6 13.49 83.48 -5.34 99.62 -11.85 92.03 14.41 69.52 34.64 92.09 53.96 67.71 76.87 88.47 92.18 68.44 111.21 91.76 128.94 68.39 145.62 89.05 163.75 70.03 197.73 92.37 205.68 73.54 230.2 89.54 241.78 69.2 268.16 88.16 284.49 67.29 296.82 91.12 316.38 69.3 340.12 92.25 356.91 69.05 383.02 92.71 404.63 67.73 412.19 74.27 383.89 106.99 358.47 83.95 341.45 107.45 316.89 83.71 294.59 108.58"/><polygon points="-7.81 141.62 -15.38 135.08 12.93 102.36 38.34 125.39 55.36 101.9 78.83 124.59 91.21 100.77 112.93 125.06 126.7 107.47 152.13 125.75 169.55 99.34 190 122.13 219.06 107.13 232.76 125.15 251.81 105.14 267.63 124.73 279.33 109.31 303.43 126.02 318.59 106.18 340.81 126.22 361.88 101.94 383.33 125.87 402.15 109.73 408.66 117.32 382.41 139.82 362 117.06 341.69 140.47 319.95 120.87 305.58 139.68 281.5 122.99 267.87 140.96 251.19 120.3 231.9 140.54 216.18 119.87 187.72 134.56 170.76 115.66 154.75 139.94 128.66 121.19 113.44 140.63 93.41 118.23 81.53 141.1 56.7 117.1 39.9 140.3 13.79 116.64 -7.81 141.62"/><polygon points="294.59 181.58 282.77 158.72 270.12 174.88 244.97 156.81 233.63 176.72 210.24 161.46 202.27 180.32 165.23 155.97 145 177.2 129.19 157.62 111.5 180.93 92.44 157.57 78.22 176.18 55.16 155.29 35.11 180.6 13.49 156.48 -5.34 172.62 -11.85 165.03 14.41 142.52 34.64 165.09 53.96 140.71 76.87 161.47 92.18 141.44 111.21 164.76 128.94 141.39 145.62 162.05 163.75 143.03 197.73 165.37 205.68 146.54 230.2 162.54 241.78 142.2 268.16 161.16 284.49 140.29 296.82 164.12 316.38 142.3 340.12 165.25 356.91 142.05 383.02 165.71 404.63 140.73 412.19 147.27 383.89 179.99 358.47 156.96 341.45 180.45 316.89 156.71 294.59 181.58"/><polygon points="-7.81 214.62 -15.38 208.08 12.93 175.36 38.34 198.39 55.36 174.9 78.83 197.59 91.21 173.77 112.93 198.06 126.7 180.47 152.13 198.75 169.55 172.34 190 195.13 219.06 180.13 232.76 198.15 251.81 178.15 267.63 197.73 279.33 182.31 303.43 199.02 318.59 179.18 340.81 199.22 361.88 174.94 383.33 198.87 402.15 182.73 408.66 190.32 382.41 212.82 362 190.06 341.69 213.47 319.95 193.87 305.58 212.68 281.5 195.99 267.87 213.96 251.19 193.29 231.9 213.54 216.18 192.87 187.72 207.56 170.76 188.66 154.75 212.94 128.66 194.19 113.44 213.63 93.41 191.23 81.53 214.1 56.7 190.1 39.9 213.3 13.79 189.64 -7.81 214.62"/><polygon points="294.59 254.58 282.77 231.72 270.12 247.88 244.97 229.81 233.63 249.72 210.24 234.46 202.27 253.32 165.23 228.97 145 250.2 129.19 230.62 111.5 253.93 92.44 230.57 78.22 249.18 55.16 228.29 35.11 253.6 13.49 229.48 -5.34 245.62 -11.85 238.03 14.41 215.52 34.64 238.09 53.96 213.71 76.87 234.47 92.18 214.44 111.21 237.76 128.94 214.39 145.62 235.05 163.75 216.03 197.73 238.37 205.68 219.54 230.2 235.54 241.78 215.2 268.16 234.16 284.49 213.29 296.82 237.12 316.38 215.3 340.12 238.25 356.91 215.05 383.02 238.71 404.63 213.73 412.19 220.27 383.89 252.99 358.47 229.96 341.45 253.45 316.89 229.71 294.59 254.58"/></svg>